<svg xmlns="http://www.w3.org/2000/svg" viewBox="0 0 85.04 85.04"><defs><style>.cls-1{fill:#efcbce;}.cls-2{fill:#fff;}</style></defs><title>Recurso 9</title><g id="Capa_2" data-name="Capa 2"><g id="Capa_1-2" data-name="Capa 1"><circle class="cls-1" cx="42.52" cy="42.52" r="42.52"/><path class="cls-2" d="M49.61,17.84a1.75,1.75,0,0,1-.88-3.27,16,16,0,0,1,8-2.15,1.75,1.75,0,0,1,0,3.5,12.4,12.4,0,0,0-6.21,1.68A1.7,1.7,0,0,1,49.61,17.84Z"/><path class="cls-2" d="M70.87,30.1a1.75,1.75,0,0,1-1.75-1.75,12.37,12.37,0,0,0-1.68-6.21A12.51,12.51,0,0,0,62.9,17.6a12.37,12.37,0,0,0-6.21-1.68,1.75,1.75,0,0,1,0-3.5,16,16,0,0,1,8,2.15,16.18,16.18,0,0,1,5.81,5.81,16,16,0,0,1,2.15,8A1.76,1.76,0,0,1,70.87,30.1Z"/><path class="cls-2" d="M28.35,72.62A16,16,0,0,1,12.42,56.69a1.75,1.75,0,0,1,3.5,0A12.43,12.43,0,0,0,34.56,67.44a1.75,1.75,0,1,1,1.75,3A16,16,0,0,1,28.35,72.62Z"/><path class="cls-2" d="M42.52,72.62a15.92,15.92,0,0,1-8-2.15,1.74,1.74,0,0,1,0-3,12.41,12.41,0,0,0,0-21.49,16.69,16.69,0,0,0-6.45-1.7,19.68,19.68,0,0,1-7.73-2.13,15.88,15.88,0,0,1-5.81-21.74,16.18,16.18,0,0,1,5.81-5.81,16,16,0,0,1,8-2.15H42.52a15.92,15.92,0,0,1,8,2.15,15.9,15.9,0,0,1,8,13.78,15.9,15.9,0,0,1-7.61,13.56l-.35.21a1.74,1.74,0,0,1-2.39-.64,1.69,1.69,0,0,1-.23-.87,1.76,1.76,0,0,1,.87-1.52,12.43,12.43,0,0,0-6.21-23.17H28.35a12.37,12.37,0,0,0-6.21,1.68,12.51,12.51,0,0,0-4.54,4.54,12.39,12.39,0,0,0,4.54,17,16.71,16.71,0,0,0,6.42,1.69,19.62,19.62,0,0,1,7.75,2.14,15.89,15.89,0,0,1,2.61,25.66,12.49,12.49,0,0,0,9.81-1.14,1.75,1.75,0,1,1,1.75,3A16,16,0,0,1,42.52,72.62Z"/><path class="cls-2" d="M56.69,72.62a16,16,0,0,1-8-2.15,1.75,1.75,0,0,1,0-3,12.43,12.43,0,0,0-6.21-23.17,1.75,1.75,0,0,1,0-3.5,12.37,12.37,0,0,0,6.21-1.68,1.75,1.75,0,1,1,1.75,3l-.73.4.73.4A15.9,15.9,0,0,1,53.1,68.58a12.44,12.44,0,0,0,16-11.89,1.75,1.75,0,0,1,3.5,0A16,16,0,0,1,56.69,72.62Z"/></g></g></svg>