<svg xmlns="http://www.w3.org/2000/svg" viewBox="0 0 3.55 3.55"><defs><style>.cls-1{fill:#0e0e0e;}.cls-2{fill:#fff;}</style></defs><title>behance</title><g id="Capa_2" data-name="Capa 2"><g id="Layer_1" data-name="Layer 1"><path class="cls-1" d="M3.55,1.78A1.78,1.78,0,1,1,1.78,0,1.77,1.77,0,0,1,3.55,1.78Z"/><path class="cls-2" d="M.79,1.16h.7a.31.31,0,0,1,.13.06.29.29,0,0,1,.09.1.33.33,0,0,1,0,.14.27.27,0,0,1-.05.15.25.25,0,0,1-.12.11.34.34,0,0,1,.17.11A.28.28,0,0,1,1.81,2a.42.42,0,0,1,0,.16.26.26,0,0,1-.11.12.23.23,0,0,1-.16.06H.79Zm.25.2v.29h.34a.13.13,0,0,0,.09,0,.1.1,0,0,0,0-.09.14.14,0,0,0,0-.09.13.13,0,0,0-.09,0H1Zm0,.48v.33h.39a.11.11,0,0,0,.09-.05.15.15,0,0,0,0-.1.24.24,0,0,0,0-.09.16.16,0,0,0-.08-.06.82.82,0,0,0-.22,0Z"/><path class="cls-2" d="M2.52,2.09l.23,0a.35.35,0,0,1-.14.19.4.4,0,0,1-.24.07A.39.39,0,0,1,2,2.24a.49.49,0,0,1-.09-.3.47.47,0,0,1,.12-.34.37.37,0,0,1,.28-.13.37.37,0,0,1,.31.14A.51.51,0,0,1,2.76,2H2.18a.21.21,0,0,0,.06.16.16.16,0,0,0,.13.06.12.12,0,0,0,.09,0S2.5,2.14,2.52,2.09Zm0-.23a.21.21,0,0,0,0-.15.14.14,0,0,0-.12-.06.18.18,0,0,0-.13.06.25.25,0,0,0,0,.15Z"/><path class="cls-2" d="M2.11,1.4V1.19h.51V1.4Z"/></g></g></svg>