<svg xmlns="http://www.w3.org/2000/svg" viewBox="0 0 88.54 88.54"><defs><style>.cls-1{fill:#efcbce;}.cls-2{fill:#17b0ed;}.cls-3{fill:#ef3615;}.cls-4{fill:#262635;}</style></defs><title>grafica-cirulo</title><g id="Capa_2" data-name="Capa 2"><g id="Capa_1-2" data-name="Capa 1"><path class="cls-1" d="M81.05,67.28a1.74,1.74,0,0,1-1.51-.87A40.89,40.89,0,0,0,64.65,51.52a1.75,1.75,0,0,1,0-3,44.19,44.19,0,0,1,22.14-6,1.75,1.75,0,0,1,1.75,1.75,44.32,44.32,0,0,1-6,22.14A1.75,1.75,0,0,1,81.05,67.28ZM69,50.13A44.4,44.4,0,0,1,80.93,62a40.82,40.82,0,0,0,4.07-16A40.65,40.65,0,0,0,69,50.13Z"/><path class="cls-1" d="M44.27,88.54a1.75,1.75,0,0,1-1.75-1.75,44.19,44.19,0,0,1,6-22.14,1.75,1.75,0,0,1,3,0A40.89,40.89,0,0,0,66.41,79.54a1.75,1.75,0,0,1,0,3A44.32,44.32,0,0,1,44.27,88.54ZM50.13,69a40.82,40.82,0,0,0-4.07,16,40.82,40.82,0,0,0,16-4.07A44.4,44.4,0,0,1,50.13,69Z"/><path class="cls-1" d="M38.53,24.76h0A1.74,1.74,0,0,1,37,23.89,40.89,40.89,0,0,0,22.13,9a1.75,1.75,0,0,1,0-3A44.19,44.19,0,0,1,44.27,0,1.75,1.75,0,0,1,46,1.75a44.22,44.22,0,0,1-6,22.14A1.75,1.75,0,0,1,38.53,24.76ZM26.5,7.61A44.4,44.4,0,0,1,38.41,19.52a40.82,40.82,0,0,0,4.07-16A40.82,40.82,0,0,0,26.5,7.61Z"/><path class="cls-1" d="M50,24.76a1.74,1.74,0,0,1-1.51-.87,44.19,44.19,0,0,1-6-22.14A1.75,1.75,0,0,1,44.27,0,44.22,44.22,0,0,1,66.41,6a1.75,1.75,0,0,1,0,3A40.89,40.89,0,0,0,51.52,23.89,1.75,1.75,0,0,1,50,24.76ZM46.06,3.54a40.82,40.82,0,0,0,4.07,16A44.4,44.4,0,0,1,62,7.61,40.82,40.82,0,0,0,46.06,3.54Z"/><path class="cls-1" d="M1.75,46A1.75,1.75,0,0,1,0,44.27,44.19,44.19,0,0,1,6,22.13a1.74,1.74,0,0,1,1.51-.87h0A1.75,1.75,0,0,1,9,22.13,40.89,40.89,0,0,0,23.89,37a1.75,1.75,0,0,1,0,3A44.22,44.22,0,0,1,1.75,46ZM7.61,26.5a40.82,40.82,0,0,0-4.07,16,40.82,40.82,0,0,0,16-4.07A44.4,44.4,0,0,1,7.61,26.5Z"/><path class="cls-1" d="M86.79,46a44.22,44.22,0,0,1-22.14-6,1.75,1.75,0,0,1,0-3A40.89,40.89,0,0,0,79.54,22.13a1.74,1.74,0,0,1,1.51-.87h0a1.75,1.75,0,0,1,1.52.87,44.32,44.32,0,0,1,6,22.14A1.75,1.75,0,0,1,86.79,46ZM69,38.41a40.82,40.82,0,0,0,16,4.07,40.82,40.82,0,0,0-4.07-16A44.4,44.4,0,0,1,69,38.41Z"/><path class="cls-1" d="M7.48,67.28A1.74,1.74,0,0,1,6,66.41,44.22,44.22,0,0,1,0,44.27a1.75,1.75,0,0,1,1.75-1.75,44.22,44.22,0,0,1,22.14,6,1.75,1.75,0,0,1,0,3A40.89,40.89,0,0,0,9,66.41,1.75,1.75,0,0,1,7.48,67.28ZM3.54,46.06A40.82,40.82,0,0,0,7.61,62,44.4,44.4,0,0,1,19.52,50.13,40.65,40.65,0,0,0,3.54,46.06Z"/><path class="cls-1" d="M44.27,88.54a44.32,44.32,0,0,1-22.14-6,1.75,1.75,0,0,1,0-3A40.89,40.89,0,0,0,37,64.65a1.75,1.75,0,0,1,3,0,44.19,44.19,0,0,1,6,22.14A1.75,1.75,0,0,1,44.27,88.54ZM26.5,80.93a40.82,40.82,0,0,0,16,4.07,40.82,40.82,0,0,0-4.07-16A44.4,44.4,0,0,1,26.5,80.93Z"/><path class="cls-2" d="M23,40.28a1.73,1.73,0,0,1-.88-.23A44.55,44.55,0,0,1,6,23.89a1.78,1.78,0,0,1,0-1.76A44.55,44.55,0,0,1,22.13,6a1.78,1.78,0,0,1,1.76,0A44.55,44.55,0,0,1,40.05,22.13a1.78,1.78,0,0,1,0,1.76A44.55,44.55,0,0,1,23.89,40.05,1.73,1.73,0,0,1,23,40.28ZM9.52,23A41,41,0,0,0,23,36.5,41,41,0,0,0,36.5,23,41,41,0,0,0,23,9.52,41,41,0,0,0,9.52,23Z"/><path class="cls-2" d="M65.53,40.28a1.73,1.73,0,0,1-.88-.23A44.55,44.55,0,0,1,48.49,23.89a1.78,1.78,0,0,1,0-1.76A44.55,44.55,0,0,1,64.65,6a1.78,1.78,0,0,1,1.76,0A44.55,44.55,0,0,1,82.57,22.13a1.78,1.78,0,0,1,0,1.76A44.55,44.55,0,0,1,66.41,40.05,1.73,1.73,0,0,1,65.53,40.28ZM52,23A41,41,0,0,0,65.53,36.5,41,41,0,0,0,79,23,41,41,0,0,0,65.53,9.52,41,41,0,0,0,52,23Z"/><path class="cls-2" d="M23,82.8a1.73,1.73,0,0,1-.88-.23A44.55,44.55,0,0,1,6,66.41a1.78,1.78,0,0,1,0-1.76A44.55,44.55,0,0,1,22.13,48.49a1.78,1.78,0,0,1,1.76,0A44.55,44.55,0,0,1,40.05,64.65a1.78,1.78,0,0,1,0,1.76A44.55,44.55,0,0,1,23.89,82.57,1.73,1.73,0,0,1,23,82.8ZM9.52,65.53A41,41,0,0,0,23,79,41,41,0,0,0,36.5,65.53,41,41,0,0,0,23,52,41,41,0,0,0,9.52,65.53Z"/><path class="cls-2" d="M65.53,82.8a1.73,1.73,0,0,1-.88-.23A44.55,44.55,0,0,1,48.49,66.41a1.78,1.78,0,0,1,0-1.76A44.55,44.55,0,0,1,64.65,48.49a1.78,1.78,0,0,1,1.76,0A44.55,44.55,0,0,1,82.57,64.65a1.78,1.78,0,0,1,0,1.76A44.55,44.55,0,0,1,66.41,82.57,1.73,1.73,0,0,1,65.53,82.8ZM52,65.53A41,41,0,0,0,65.53,79,41,41,0,0,0,79,65.53,41,41,0,0,0,65.53,52,41,41,0,0,0,52,65.53Z"/><path class="cls-3" d="M44.27,46a44.22,44.22,0,0,1-22.14-6,1.75,1.75,0,0,1,0-3A40.89,40.89,0,0,0,37,22.13a1.75,1.75,0,0,1,3,0,44.22,44.22,0,0,1,6,22.14A1.75,1.75,0,0,1,44.27,46ZM26.5,38.41a40.82,40.82,0,0,0,16,4.07,40.82,40.82,0,0,0-4.07-16A44.4,44.4,0,0,1,26.5,38.41Z"/><path class="cls-3" d="M44.27,46a1.75,1.75,0,0,1-1.75-1.75,44.19,44.19,0,0,1,6-22.14,1.75,1.75,0,0,1,3,0A40.89,40.89,0,0,0,66.41,37a1.75,1.75,0,0,1,0,3A44.22,44.22,0,0,1,44.27,46ZM50.13,26.5a40.82,40.82,0,0,0-4.07,16,40.82,40.82,0,0,0,16-4.07A44.4,44.4,0,0,1,50.13,26.5Z"/><path class="cls-3" d="M50,67.28a1.74,1.74,0,0,1-1.51-.87,44.22,44.22,0,0,1-6-22.14,1.75,1.75,0,0,1,1.75-1.75,44.22,44.22,0,0,1,22.14,6,1.75,1.75,0,0,1,0,3A40.89,40.89,0,0,0,51.52,66.41,1.75,1.75,0,0,1,50,67.28ZM46.06,46.06a40.82,40.82,0,0,0,4.07,16A44.4,44.4,0,0,1,62,50.13,40.65,40.65,0,0,0,46.06,46.06Z"/><path class="cls-3" d="M38.53,67.28h0A1.74,1.74,0,0,1,37,66.41,40.89,40.89,0,0,0,22.13,51.52a1.75,1.75,0,0,1,0-3,44.22,44.22,0,0,1,22.14-6A1.75,1.75,0,0,1,46,44.27a44.22,44.22,0,0,1-6,22.14A1.75,1.75,0,0,1,38.53,67.28Zm-12-17.15A44.4,44.4,0,0,1,38.41,62a40.82,40.82,0,0,0,4.07-16A40.65,40.65,0,0,0,26.5,50.13Z"/><path class="cls-4" d="M44.27,46a1.75,1.75,0,0,1-1.75-1.75A40.7,40.7,0,0,0,37,23.89a1.78,1.78,0,0,1,0-1.76,40.7,40.7,0,0,0,5.5-20.38,1.75,1.75,0,0,1,3.5,0,40.7,40.7,0,0,0,5.5,20.38,1.78,1.78,0,0,1,0,1.76A40.67,40.67,0,0,0,46,44.27,1.75,1.75,0,0,1,44.27,46ZM40.54,23a43.84,43.84,0,0,1,3.73,9A43.61,43.61,0,0,1,48,23a43.84,43.84,0,0,1-3.73-9A44.07,44.07,0,0,1,40.54,23Z"/><path class="cls-4" d="M23,51.75a1.73,1.73,0,0,1-.88-.23A40.7,40.7,0,0,0,1.75,46a1.75,1.75,0,0,1,0-3.5A40.7,40.7,0,0,0,22.13,37a1.78,1.78,0,0,1,1.76,0,40.7,40.7,0,0,0,20.38,5.5,1.75,1.75,0,0,1,0,3.5,40.7,40.7,0,0,0-20.38,5.5A1.73,1.73,0,0,1,23,51.75Zm-9-7.48A44.37,44.37,0,0,1,23,48a44.37,44.37,0,0,1,9-3.72,43.61,43.61,0,0,1-9-3.73A44.07,44.07,0,0,1,14,44.27Z"/><path class="cls-4" d="M65.53,51.75a1.73,1.73,0,0,1-.88-.23A40.7,40.7,0,0,0,44.27,46a1.75,1.75,0,0,1,0-3.5A40.7,40.7,0,0,0,64.65,37a1.78,1.78,0,0,1,1.76,0,40.7,40.7,0,0,0,20.38,5.5,1.75,1.75,0,0,1,0,3.5,40.7,40.7,0,0,0-20.38,5.5A1.75,1.75,0,0,1,65.53,51.75Zm-9-7.48a44.6,44.6,0,0,1,9,3.72,44.13,44.13,0,0,1,9-3.72,43.61,43.61,0,0,1-9-3.73A44.07,44.07,0,0,1,56.53,44.27Z"/><path class="cls-4" d="M44.27,88.54a1.75,1.75,0,0,1-1.75-1.75A40.7,40.7,0,0,0,37,66.41a1.78,1.78,0,0,1,0-1.76,40.7,40.7,0,0,0,5.5-20.38,1.75,1.75,0,0,1,3.5,0,40.7,40.7,0,0,0,5.5,20.38,1.78,1.78,0,0,1,0,1.76A40.67,40.67,0,0,0,46,86.79,1.75,1.75,0,0,1,44.27,88.54Zm-3.73-23a43.61,43.61,0,0,1,3.73,9,43.61,43.61,0,0,1,3.73-9,44.07,44.07,0,0,1-3.73-9A44.07,44.07,0,0,1,40.54,65.53Z"/></g></g></svg>