<svg xmlns="http://www.w3.org/2000/svg" viewBox="0 0 3.55 3.55"><defs><style>.cls-1{fill:#fff;}.cls-2{fill:#0e0e0e;fill-rule:evenodd;}</style></defs><title>instagram-b</title><g id="Capa_2" data-name="Capa 2"><g id="Layer_1" data-name="Layer 1"><path class="cls-1" d="M3.55,1.78A1.78,1.78,0,1,1,1.78,0,1.77,1.77,0,0,1,3.55,1.78Z"/><path class="cls-2" d="M2.49.81H1.07a.23.23,0,0,0-.26.26V2.49a.23.23,0,0,0,.25.26H2.49c.17,0,.25-.09.25-.26V1.07C2.74.9,2.66.81,2.49.81ZM2.33,1c.19,0,.19,0,.19.19s0,.19-.18.19-.19,0-.19-.19S2.15,1,2.33,1Zm-.55.37a.38.38,0,0,1,.37.38.37.37,0,0,1-.38.37.38.38,0,0,1-.37-.38A.39.39,0,0,1,1.78,1.4Zm.74,1c0,.09,0,.11-.11.11H1.14c-.08,0-.11,0-.11-.11v-.7c0-.07,0-.09.08-.08s.09,0,.08.08a.59.59,0,0,0,.47.65A.6.6,0,0,0,2.35,2a.66.66,0,0,0,0-.28s0,0,0,0,.13,0,.13.12Z"/></g></g></svg>